<svg version="1.1" xmlns="http://www.w3.org/2000/svg" xmlns:xlink="http://www.w3.org/1999/xlink" viewBox="0 0 172 172"><g fill="none" fill-rule="nonzero" stroke="none" stroke-width="1" stroke-linecap="butt" stroke-linejoin="miter" stroke-miterlimit="10" stroke-dasharray="" stroke-dashoffset="0" font-family="none" font-weight="none" font-size="none" text-anchor="none" style="mix-blend-mode: normal"><path d="M0,172v-172h172v172z" fill="none"></path><g fill="#dc143c"><path d="M37.625,32.25c-5.87521,0 -10.75,4.87479 -10.75,10.75v62.27442l-12.32471,12.3247c-2.4347,2.4347 -3.80029,5.74544 -3.80029,9.1753c0,7.10216 5.87342,12.97558 12.97559,12.97558h124.54883c7.10216,0 12.97558,-5.87342 12.97558,-12.97558v-5.375h-2.22558c-0.62041,-1.25539 -0.56622,-2.79181 -1.57471,-3.8003l-12.32471,-12.3247v-62.27442c0,-5.87521 -4.87479,-10.75 -10.75,-10.75zM37.625,43h96.75v59.125h-96.75zM112.875,51.52441l-26.875,26.875l-21.5,-21.5l-19.92529,19.92529l7.60059,7.60058l12.32471,-12.32471l21.5,21.5l26.875,-26.875l6.94971,6.94971l7.60058,-7.60058zM34.47559,112.875h103.04883l12.3247,12.32471c0.4248,0.4248 0.65088,0.97331 0.65088,1.57471c0,1.29359 -0.932,2.22558 -2.22558,2.22558h-124.54883c-1.29359,0 -2.22559,-0.932 -2.22559,-2.22558c0,-0.6014 0.22608,-1.14991 0.65088,-1.57471z"></path></g></g></svg>