<svg version="1.1" xmlns="http://www.w3.org/2000/svg" xmlns:xlink="http://www.w3.org/1999/xlink" viewBox="0 0 172 172"><g fill="none" fill-rule="nonzero" stroke="none" stroke-width="1" stroke-linecap="butt" stroke-linejoin="miter" stroke-miterlimit="10" stroke-dasharray="" stroke-dashoffset="0" font-family="none" font-weight="none" font-size="none" text-anchor="none" style="mix-blend-mode: normal"><path d="M0,172v-172h172v172z" fill="none"></path><g fill="#dc143c"><path d="M86,21.5c-22.41213,0 -42.19016,11.47632 -53.75,28.88013v-12.75513h-10.75v32.25h32.25v-10.75h-14.16187c9.29819,-16.01692 26.50692,-26.875 46.41187,-26.875c29.74812,0 53.75,24.00188 53.75,53.75h10.75c0,-35.55813 -28.94187,-64.5 -64.5,-64.5zM80.625,53.75v6.39331c-0.77938,0.28219 -1.53691,0.62705 -2.25708,1.01831c-0.72016,0.39126 -1.40758,0.83271 -2.05761,1.32276c-0.65004,0.49005 -1.25767,1.02765 -1.82666,1.6062c-1.13799,1.1571 -2.10717,2.47691 -2.85547,3.92627c-0.37415,0.72468 -0.69497,1.48526 -0.95532,2.26758c-0.52071,1.56463 -0.79785,3.23214 -0.79785,4.96558c0,1.10188 0.11884,2.1794 0.33594,3.2229c0.4342,2.08702 1.2795,4.03545 2.44604,5.75293c0.58327,0.85874 1.24129,1.66121 1.97364,2.39355c1.46469,1.46469 3.20862,2.65181 5.13354,3.47486c1.92492,0.82305 4.03209,1.28076 6.23584,1.28076c0.76594,0 1.48359,0.14487 2.1311,0.40942c0.64752,0.26455 1.2203,0.6534 1.70069,1.13379c0.48039,0.48039 0.86923,1.05317 1.13379,1.70069c0.26455,0.64752 0.40942,1.36516 0.40942,2.1311c0,2.29781 -1.30134,4.17192 -3.2439,4.96558c-0.64752,0.26455 -1.36516,0.40942 -2.1311,0.40942c-0.76594,0 -1.48359,-0.14487 -2.1311,-0.40942c-0.64752,-0.26455 -1.2203,-0.6534 -1.70069,-1.13379c-0.96078,-0.96078 -1.54321,-2.29991 -1.54321,-3.83179h-10.75c0,0.86672 0.07433,1.72137 0.20996,2.55102c0.13564,0.82966 0.32754,1.63224 0.5879,2.41455c0.26035,0.78232 0.58117,1.5429 0.95532,2.26758c0.37415,0.72468 0.80373,1.41136 1.28076,2.06812c0.47703,0.65676 1.00572,1.2796 1.57471,1.85815c0.56899,0.57855 1.17662,1.11615 1.82666,1.6062c0.65004,0.49005 1.33745,0.93149 2.05761,1.32276c0.72016,0.39126 1.47771,0.73612 2.25708,1.01831v6.39331h10.75v-6.39331c5.45562,-1.97531 9.5906,-6.74804 10.54004,-12.55567c0.13563,-0.82966 0.20996,-1.6843 0.20996,-2.55102c0,-1.10187 -0.11884,-2.1794 -0.33594,-3.2229c-0.2171,-1.04351 -0.5333,-2.05048 -0.94482,-3.01294c-0.41153,-0.96246 -0.91795,-1.88125 -1.50122,-2.73999c-0.58327,-0.85874 -1.24129,-1.66121 -1.97364,-2.39355c-0.73234,-0.73234 -1.53482,-1.39036 -2.39355,-1.97364c-0.85874,-0.58327 -1.77753,-1.0897 -2.73999,-1.50122c-0.96246,-0.41152 -1.96943,-0.72772 -3.01294,-0.94482c-1.0435,-0.2171 -2.12102,-0.33594 -3.2229,-0.33594c-0.76594,0 -1.48359,-0.14487 -2.1311,-0.40942c-0.64752,-0.26455 -1.2203,-0.6534 -1.70069,-1.13379c-0.48039,-0.48039 -0.86923,-1.05317 -1.13379,-1.70069c-0.26455,-0.64752 -0.40942,-1.36516 -0.40942,-2.1311c0,-0.76594 0.14487,-1.48359 0.40942,-2.1311c0.26455,-0.64752 0.6534,-1.2203 1.13379,-1.70069c0.48039,-0.48039 1.05317,-0.86923 1.70069,-1.13379c0.64752,-0.26455 1.36516,-0.40942 2.1311,-0.40942c3.06375,0 5.375,2.31125 5.375,5.375h10.75c0,-0.86672 -0.07433,-1.72137 -0.20996,-2.55102c-0.13564,-0.82966 -0.32754,-1.63224 -0.5879,-2.41455c-1.5621,-4.69389 -5.2759,-8.44799 -9.95215,-10.14111v-6.39331zM21.5,86c0,35.55813 28.94187,64.5 64.5,64.5c22.41213,0 42.19015,-11.47632 53.75,-28.88013v12.75513h10.75v-32.25h-32.25v10.75h14.16187c-9.29819,16.01692 -26.50693,26.875 -46.41187,26.875c-29.74812,0 -53.75,-24.00188 -53.75,-53.75z"></path></g></g></svg>